<?xml version="1.0" encoding="UTF-8"?>
<svg version="1.1" viewBox="0 0 2048 2048" xmlns="http://www.w3.org/2000/svg">
<g transform="matrix(1 0 0 -1 0 2048)">
<path d="M1024 1692q66 0 64 66 1 55-64 55-66 0-64-55-3-66 64-66zm0-1204q0-114-101-198.5T700 205H205q0 117 65 179t142 62h250q51 0 88 7t71 60q12 20 10 16h76q-7-21-3-13-45-105-109-124.5T649 372H409q-52 0-86-40t-34-53h424q66 0 158.5 65T965 529H624q67 116 72 229-114 119-162 223.5t-6 223.5q33 96 118 189.5T958 1641q-17 11-46 36t-29 79q0 58 41 96t100 38q58 0 99.5-38t41.5-96q0-54-29.5-79t-45.5-36q226-153 311-246.5t119-189.5q42-119-6-223.5T1352 758q4-113 72-229h-341q0-120 93-185t159-65h424q0 13-34.5 53t-85.5 40h-240q-83 0-146.5 19.5T1144 516q4-8-3 13h76q-2 4 10-16 33-53 70-60t89-7h250q76 0 141.5-62t65.5-179h-495q-123 0-223.5 84.5T1024 488zm0 114h283q-28 84-29 154-120 41-254 38-135 3-254-38-2-70-29-154h283zm0 267q159 1 285-42 189 180 142 346-60 193-427 431-368-238-427-431-48-166 142-346 125 43 285 42zm-47 361v104h94v-104h95v-89h-95V976h-94v165h-95v89h95z"/>
</g>
<path d="m980.18 333.34c-22.19-22.19-22.19-55.913 0-78.102 35.838-35.838 104.14-10.227 104.14 39.05 0 29.458-29.023 56.408-60.746 56.408-14.463 0-33.747-7.714-43.39-17.356z" fill="#f9f9f9" stroke="#000" fillOpacity="1" strokeDasharray="none" strokeDashoffset="0" strokeLinecap="round" strokeLinejoin="miter" strokeMiterlimit="3.8" strokeOpacity="1" strokeWidth="0"/>
<path d="m691.56 1162.9c-86.016-103.3-118.43-217.52-85.204-300.22 23.46-58.402 87.625-145.48 152.85-207.44 66.656-63.317 193.84-161.72 243.79-188.62l27.338-14.722 90.794 66.167c230.31 167.84 347.23 323.44 333.17 443.41-6.81 58.115-46.04 138.16-98.716 201.43l-44.049 52.901-63.71-17.461c-53.166-14.572-90.28-17.462-224.25-17.462s-171.09 2.89-224.25 17.462l-63.71 17.461-44.05-52.901zm384.08-165.72v-82.44h95.458v-104.14h-95.458v-104.14h-104.14v104.14h-95.458v104.14h95.458v164.88h104.14v-82.44z" fill="#f9f9f9" stroke="#000" fillOpacity="1" strokeDasharray="none" strokeDashoffset="0" strokeLinecap="round" strokeLinejoin="miter" strokeMiterlimit="3.8" strokeOpacity="1" strokeWidth="0"/>
<path d="m745.98 1442c0.057-1.193 5.868-23.648 12.914-49.898 7.046-26.251 12.858-58.36 12.914-71.351 0.093-21.157 5.31-25.232 50.002-39.051 70.887-21.919 331.58-22.261 401.71-0.528l48.083 14.901 10.223 59.618c5.623 32.79 12.715 66.112 15.76 74.048 5.093 13.27-16.857 14.43-273.08 14.43-153.24 0-278.58-0.976-278.52-2.169z" fill="#f9f9f9" stroke="#000" fillOpacity="1" strokeDasharray="none" strokeDashoffset="0" strokeLinecap="round" strokeLinejoin="miter" strokeMiterlimit="3.8" strokeOpacity="1" strokeWidth="0"/>
<path d="m312.23 1738.8c38.203-53.65 46.224-55.574 255.33-61.236 105.27-2.85 205.33-9.687 222.44-15.199 38.632-12.44 87.308-60.14 107.84-105.68 12.794-28.372 19.886-34.478 40.047-34.478 22.92 0 24.164 1.818 19.307 28.203-15.617 84.836-58.861 136.72-153.91 184.65l-59.743 30.128h-450.1l18.788-26.385z" fill="#f9f9f9" stroke="#000" fillOpacity="1" strokeDasharray="none" strokeDashoffset="0" strokeLinecap="round" strokeLinejoin="miter" strokeMiterlimit="3.8" strokeOpacity="1" strokeWidth="0"/>
<path d="m1243.9 1735.1c-95.59-48.207-135.09-94.003-150.02-173.92-7.12-38.107-6.792-38.926 15.47-38.674 18.44 0.21 28.171 9.653 51.417 49.898 53.855 93.239 92.612 105.79 327.12 105.96 183.71 0.13 205 5.216 245.52 58.666l21.383 28.203h-451.15l-59.742-30.128z" fill="#f9f9f9" stroke="#000" fillOpacity="1" strokeDasharray="none" strokeDashoffset="0" strokeLinecap="round" strokeLinejoin="miter" strokeMiterlimit="3.8" strokeOpacity="1" strokeWidth="0"/>
</svg>
