    <svg xmlns="http://www.w3.org/2000/svg" viewBox="0 0 2048 2048">
      <path
        d="M768 683q-5-39-26-82h564q-18 36-26 82H768zm495 73l46 73q-142 49-285 47-144 2-285-47l46-73q118 40 239 38 120 2 239-38zM831 529H624q67 116 72 229-114 119-162 223.5t-6 223.5q33 96 118 189.5T958 1641q-17 11-46 36t-29 79q0 58 41 96t100 38q58 0 99.5-38t41.5-96q0-54-29.5-79t-45.5-36q226-153 311-246.5t119-189.5q42-119-6-223.5T1352 758q4-113 72-229h-207q-2 4 10-16 33-53 70-60t89-7h250q76 0 141.5-62t65.5-179h-495q-123 0-223.5 84.5T1024 488q0-114-101-198.5T700 205H205q0 117 65 179t142 62h250q51 0 88 7t71 60q12 20 10 16zm146 701h-95v-89h95V976h94v165h95v89h-95v104h-94v-104z"
        transform="matrix(1 0 0 -1 0 2048)"
      ></path>
      <path
        fill="#ececec"
        d="M761.54 1406.7l12.856-39.051h499.2l25.712 78.102h-550.64l12.856-39.051zM765.08 1250.9l-17.653-29.92 44.999-13.068c84.665-24.587 172.41-33.595 274.97-28.23 54.888 2.872 113.46 8.98 130.17 13.573s46.779 12.606 66.831 17.806l36.458 9.454-17.79 30.152c-20.327 34.452-23.311 34.992-91.585 16.586-68.72-18.527-266.23-18.527-334.95 0-68.23 18.395-71.266 17.852-91.448-16.353zM980.61 981.48v-82.441h-95.458v-78.102h95.458V716.801h86.78v104.136h95.458v78.102h-95.458v164.882h-86.78V981.48z"
      ></path>
    </svg>