    <svg xmlns="http://www.w3.org/2000/svg" viewBox="0 0 2048 2048">
      <path
        d="M502 1180l-52-1-26-64 69-21 46 55zm536 187q34-1-16 68t-80 42l-116-109zm-338 98q6 39 115.5 107.5T1036 1716l115 154 96-217q342-172 432.5-417.5T1727 632q-18-128 4.5-236t57.5-190l-1242-1q-9 178 39 301.5T769 744q50 11 82.5 39.5T905 842l62.5 1 138 29 139 97 66.5 207q0 17-8.5 34t-11.5 37q-62-228-161-288.5T939 900q-236 42-292-60l-56-102-217 121 115 82-51 50-122-86-12 297zm981-1192q-102 130-85 308.5t27 362.5-50 351.5-316 275.5q220-164 252.5-342t16.5-350.5-12-329T1681 273z"
        transform="matrix(1 0 0 -1 0 2048)"
      ></path>
      <path
        fill="#ececec"
        d="M1601.3 1693c-81.081-89.747-91.584-156.54-74.228-472.05 20.379-370.45-8.751-495.12-150.56-644.34-28.348-29.831-47.814-54.237-43.256-54.237 17.017 0 100.11 58.435 144.65 101.73 57.052 55.451 86.14 107.89 109.64 197.66 34.994 133.69 37.544 201.94 17.328 463.82-19.991 258.96-17.542 312.62 18.058 395.67 9.698 22.626 16.13 42.64 14.294 44.477-1.837 1.837-18.004-12.891-35.926-32.729zM896.7 621.33c55.683-53.268 60.422-55.961 78.102-44.378 26.068 17.078 76.403 84.066 70.43 93.731-2.697 4.364-50.558 7.804-106.36 7.646l-101.45-.289 59.28-56.71zM464.27 941.45c-27.441-6.6-31.269-14.684-20.96-44.258 7.683-22.038 14.483-27.656 33.481-27.656 13.112 0 30.363 7.208 38.335 16.017 13.592 15.019 13.367 17.451-3.624 39.051-9.965 12.669-20.764 22.581-23.997 22.028-3.233-.554-13.689-2.885-23.235-5.181z"
      ></path>
    </svg>