    <svg xmlns="http://www.w3.org/2000/svg" viewBox="0 0 2048 2048">
      <path
        d="M590 529q4-72-15-158l134 86zm434-324H441q114 231 57.5 456.5T296 1111q-12-2-19-2-54 0-92.5 38.5T146 1240t38.5 92.5T277 1371t92.5-38.5T408 1240q0-20-6-38-4-14-15-33l196-139 100 486q-64 31-72 103-5 44 29 91t88 53q54 5 96-29t48-88q7-68-46-114l198-412 198 412q-54 46-46 114 6 54 48 88t96 29q54-6 87.5-53t29.5-91q-9-72-72-103l100-486 196 139q-12 19-15 33-6 18-6 38 0 54 38.5 92.5t92.5 38.5 92.5-38.5 38.5-92.5-38.5-92.5-92.5-38.5q-7 0-19 2-147-224-203-449.5t58-456.5h-583zm0 450q109 0 222-28.5t213-67.5q2 41 11 89-108 42-221.5 68T1024 742t-225-26-221-68q8-48 11-89 99 39 212 67.5t223 28.5zm0-376h478q-15 34-24 73H570q-10-39-24-73h478zm434 250l-119-72 134-86q-20 86-15 158zm-573-47l139-87 139 84-139 86z"
        transform="matrix(1 0 0 -1 0 2048)"
      ></path>
      <path
        fill="#ececec"
        d="M555.39 1758.6c0-1.674 4.287-15.342 9.527-30.373l9.527-27.329h899.12l9.527 27.329c5.24 15.031 9.527 28.699 9.527 30.373s-210.87 3.044-468.61 3.044-468.61-1.37-468.61-3.044zM952.36 1602.4l-58.62-37.252 130.27-74.537 60.737 36.083c33.406 19.846 60.662 38.838 60.571 42.204-.231 8.51-108.89 71.257-122.91 70.98-6.287-.124-37.81-16.989-70.052-37.478zM1412.9 1632.7c-27.123-17.371-49.385-35.488-49.472-40.261-.086-4.773 20.152-21.507 44.975-37.186l45.133-28.508 5.202 67.559c2.862 37.158 4.814 68.104 4.34 68.769-.475.665-23.055-13.002-50.178-30.373zM588.8 1452.5c-.716-16.14-1.692-33.641-2.17-38.893-2.095-23.054 203.92-80.786 343.77-96.337 72.024-8.009 114.69-8.085 184.08-.331 140.57 15.709 348.97 73.783 346.89 96.669-.477 5.251-1.453 22.753-2.169 38.893l-1.302 29.344-101.97-32.592c-133.92-42.805-210.81-55.71-331.93-55.71-121.13 0-198.02 12.905-331.93 55.71l-101.97 32.592-1.301-29.344zM587.65 1602.8c2.111-34.33 4.524-65.41 5.361-69.067.838-3.657 24.251 7.568 52.03 24.944 27.78 17.376 47.284 34.594 43.343 38.261-3.94 3.668-29.082 20.531-55.869 37.474l-48.704 30.806 3.838-62.418z"
      ></path>
    </svg>