    <svg xmlns="http://www.w3.org/2000/svg" viewBox="0 0 2048 2048">
      <path
        d="M1024 205H383l29 264 159 118 50 659-149 107-17 341h289v-147h137v147h286v-147h137v147h289l-17-341-149-107 50-659 159-118 29-264h-641zm0 989h333l-6 88H697l-6-88h333zm0-647h381l-6 87H649l-6-87h381z"
        transform="matrix(1 0 0 -1 0 2048)"
      ></path>
      <path
        fill="#ececec"
        d="M650.85 1457v-39.051h746.3v78.102h-746.3V1457zM694.24 837.64c0-8.95 2.44-28.475 5.424-43.39l5.423-27.119h637.84l5.424 27.119c13.066 65.329 43.88 59.661-324.34 59.661-316.65 0-329.76-.647-329.76-16.271z"
      ></path>
    </svg>