<svg xmlns="http://www.w3.org/2000/svg" viewBox="0 0 2048 2048">
      <path
        d="M1004 956q31-17 54-42 21 15 36.5 13.5t33.5 1.5q78 11 128.5 85t52.5 165l-19 67q-55-239-188-257-21-3-45-5.5t-53-27.5zm-258 449l-46 60q6 39 115.5 107.5T1036 1716l115 154 96-217q342-172 432.5-417.5T1727 632q-18-128 4.5-236.5T1789 205H547q-9 178 39 301.5T769 744q78 16 115 71t55 85q-236 42-292-60l-56-102-217 121 115 82-51 50-122-86-12 297 396 263q12-18 23-31t23-29l-366-241 4-125 64 41 138-144-78-65 47-28 38.5 45L702 961q54 18 165 27t191-74q-56-63-91-132.5T815 679q-92-79-146-176.5T621 279h1019q-35 133-32 234.5t12.5 199 9 205T1589 1170q-51 126-134 234t-262 188l-59 133-49-69q-99-62-208-131t-131-120zm292-30l-212 2 116 100q30 25 80-38.5t16-63.5zm-536-195l37-31-46-55-57 26 33 56z"
        transform="matrix(1 0 0 -1 0 2048)"
      ></path>
      <path
        fill="#f9f9f9"
        d="M627.95 1706.3c7.065-76.014 30.659-139.69 76.015-205.14 55.613-80.257 94.335-116.15 155.14-143.79 71.305-32.421 79.386-39.881 134.58-124.23 62.211-95.069 76.389-108.44 115.26-108.67 42.307-.25 94.911-25.321 129.39-61.665 56.14-59.182 85.649-170 63.301-237.71l-10.907-33.048-23.646 70.474c-34.131 101.72-65.494 146.5-123.42 176.21-17.708 9.081-42.24 16.511-54.516 16.511-12.276 0-36.546 5.944-53.934 13.209-28.59 11.945-35.748 11.837-74.808-1.137-46.585-15.473-144.08-12.378-222.56 7.066-42.821 10.61-159.72 84.484-168.05 106.2-6.115 15.936-24.212 17.583-38.309 3.487-7.573-7.573-1.34-17.72 25.536-41.57l35.555-31.553-139.22-146.7-60.669 28.931-5.428-39.602c-2.985-21.78-5.428-45.019-5.428-51.639 0-6.62 82.03-66.333 182.29-132.7 100.26-66.363 193.01-133.62 206.1-149.46 36.257-43.863 48.448-52.978 190.71-142.59 95.768-60.325 137.52-91.894 151.55-114.59l19.362-31.328 29.557 66.084c26.02 58.176 33.823 68.004 65.2 82.122 190.44 85.687 333.52 273.37 379.39 497.66 19.552 95.588 19.822 149.11 2.625 520.68-4.224 91.27-2.3 132.22 8.71 185.34 7.774 37.5 14.134 71.67 14.134 75.932 0 4.459-214.26 7.75-504.57 7.75H622.32l5.625-60.528zM527.8 884.36c-27.189-28.941-55.878-25.884-76.639 8.167-22.559 37-22.124 39.113 10.943 53.104 26.933 11.396 29.471 10.737 56.361-14.65l28.158-26.584L527.8 884.36zm523.57-232.45c-4.658-26.618-52.531-82.087-75.909-87.955-24.656-6.188-41.776 4.14-107.66 64.955l-47.729 44.054 117.15-1.947c111.41-1.852 117.01-2.79 114.15-19.107z"
      ></path>
    </svg>