    <svg xmlns="http://www.w3.org/2000/svg" viewBox="0 0 2048 2048">
      <path
        d="M520 279h1008q8 97-132 182-132 101-196.5 239.5T1120 1009H928q-15-170-79.5-308.5T652 461q-141-85-132-182zm504-74H446v74q-4 80 41.5 137T613 524q117 91 171.5 217.5T863 1009H576l284 239q-86 74-86 188 0 103 73 177t177 74q103 0 176.5-74t73.5-177q0-114-86-188l284-239h-287q23-141 78-267.5T1435 524q79-51 124.5-108t42.5-137v-74h-578zm-268 869h536l-225 191q134 31 134 171 0 76-52.5 126.5T1024 1613q-73 0-125-50.5T847 1436q0-140 134-171z"
        transform="matrix(1 0 0 -1 0 2048)"
      ></path>
      <path
        fill="#f9f9f9"
        d="M873.46 881.35c56.548-47.912 103.9-90.225 105.23-94.028s-13.56-14.119-33.086-22.924c-152.25-68.656-108.09-302.54 60.901-322.55 35.536-4.209 51.159-1.043 90.959 18.429 129.28 63.25 132.26 246.71 4.938 304.12-19.526 8.805-34.415 19.121-33.086 22.924 1.329 3.803 48.683 46.116 105.23 94.028l102.81 87.114h-506.72l102.81-87.114z"
      ></path>
      <path
        fill="#f9f9f9"
        d="M781.02 961.87c0-3.625 7.029-10.98 15.62-16.345 21.196-13.237 178.93-152.07 182.42-160.56 1.532-3.729-7.254-9.3-19.525-12.379-12.271-3.08-22.311-8.422-22.311-11.871s-9.724-11.475-21.608-17.835c-49.579-26.534-72.352-127.53-44.037-195.3 5.984-14.32 11.486-28.966 12.228-32.546 2.211-10.668 35.372-41.22 44.739-41.22 4.773 0 8.678-3.234 8.678-7.188 0-13.2 81.947-26.787 115.68-19.178 50.734 11.442 116.79 62.13 126.21 96.842 19.736 72.752 19.432 102.64-1.454 142.97-15.955 30.812-66.016 77.403-92.046 85.665-10.546 3.348-17.984 8.95-16.528 12.45 3.419 8.217 161.76 147.33 182.28 160.14 8.591 5.365 15.62 12.72 15.62 16.344s-109.34 6.591-242.98 6.591-242.98-2.966-242.98-6.59zM520.68 1757.9c0-15.851 26.236-72.335 41.551-89.456 8.17-9.134 50.107-45.024 93.192-79.756 152.94-123.29 233.59-266.51 265.98-472.36l10.973-69.738h183.252l10.973 69.738c31.04 197.27 113.68 349.53 248.11 457.12 115.04 92.077 133.84 113.73 147.22 169.55l5.722 23.864h-503.49c-340.32 0-503.49-2.903-503.49-8.957z"
      ></path>
    </svg>