<?xml version="1.0" encoding="UTF-8"?>
<svg version="1.1" viewBox="0 0 2048 2048" xmlns="http://www.w3.org/2000/svg">
<g transform="matrix(1 0 0 -1 0 2048)">
<path d="M1024 279h478q-53 130-43 280-100 39-213 67.5T1024 655q-110 0-223-28.5T589 559q9-150-43-280h478zm0 450q111 0 223.5-26.5T1468 635q17 105 60.5 212.5T1634 1060l-220-155-123 601-267-555-267 555-123-601-220 155q61-105 104.5-212.5T580 635q108 41 220.5 67.5T1024 729zm0-524H441q114 231 57.5 456.5T296 1111q-12-2-19-2-54 0-92.5 38.5T146 1240t38.5 92.5T277 1371t92.5-38.5T408 1240q0-20-6-38-4-14-15-33l196-139 100 486q-64 31-72 103-5 44 29 91t88 53q54 5 96-29t48-88q7-68-46-114l198-412 198 412q-54 46-46 114 6 54 48 88t96 29q54-6 87.5-53t29.5-91q-9-72-72-103l100-486 196 139q-12 19-15 33-6 18-6 38 0 54 38.5 92.5t92.5 38.5 92.5-38.5 38.5-92.5-38.5-92.5-92.5-38.5q-7 0-19 2-147-224-203-449.5t58-456.5h-583zM276 1302q-62 0-62-62t62-62q63 0 63 62t-63 62zm466 394q-62 0-62-62t62-62 62 62-62 62zM590 529l119-72-134-86q19 86 15 158zm1182 773q-63 0-63-62t63-62q62 0 62 62t-62 62zm-466 394q-62 0-62-62t62-62 62 62-62 62zm152-1167l-119-72 134-86q-20 86-15 158zm-573-47l139 83 139-86-139-84z"/>
</g>
<path d="m576.77 1374.2c-14.267-66.74-52.328-173.44-91.813-257.39-23.37-49.688-40.835-91.999-38.81-94.024 2.025-2.024 45.83 26.176 97.344 62.668l93.663 66.35 58.447-284.73c32.145-156.6 59.632-290.3 61.082-297.11s60.944 109.37 132.21 258.17c71.267 148.8 132.06 270.55 135.1 270.55s63.834-121.75 135.1-270.55c71.267-148.8 130.76-264.98 132.21-258.17 1.45 6.81 28.936 140.51 61.082 297.11l58.447 284.73 93.663-66.349c51.514-36.492 95.542-64.47 97.839-62.173s-11.957 36.264-31.675 75.48c-38.474 76.522-78.316 184.4-95.314 258.09-5.78 25.058-13.05 45.49-16.153 45.406s-41.66-11.521-85.68-25.415c-142.54-44.987-212.99-56.344-349.52-56.344s-206.99 11.357-349.52 56.344c-44.021 13.894-82.657 25.33-85.857 25.415-3.2 0.084-8.532-12.538-11.848-28.05z" fill="#f9f9f9" stroke="#000" fillOpacity="1" strokeDasharray="none" strokeDashoffset="0" strokeLinecap="round" strokeLinejoin="miter" strokeMiterlimit="3.8" strokeOpacity="1" strokeWidth="0"/>
<path d="m558.93 1747.3c3.058-10.74 7.771-29.589 10.474-41.888 3.574-16.261 23.603-34.015 73.424-65.084 37.68-23.498 68.568-45.204 68.64-48.236 0.07-3.032-27.206-22.03-60.617-42.216-33.41-20.187-60.745-41.34-60.745-47.005 0-12.769 141.32-59.812 251.36-83.674 110.96-24.062 254.12-24.062 365.08 0 110.04 23.862 251.36 70.905 251.36 83.674 0 5.666-27.335 26.818-60.745 47.005s-60.66 39.184-60.554 42.216c0.105 3.032 29.429 23.9 65.163 46.376 62.842 39.523 73.804 52.953 87.38 107.04l5.35 21.312h-941.13l5.56-19.525zm538.53-132.99c35.966-21.835 65.373-42.336 65.348-45.559-0.054-7.143-127.71-88.299-138.9-88.299-14.728 0-139.62 79.827-137 87.566 3.402 10.048 121 84.654 134.62 85.41 5.797 0.32 39.966-17.282 75.932-39.117z" fill="#f9f9f9" stroke="#000" fillOpacity="1" strokeDasharray="none" strokeDashoffset="0" strokeLinecap="round" strokeLinejoin="miter" strokeMiterlimit="3.8" strokeOpacity="1" strokeWidth="0"/>
<path d="m1738.2 857.44c-27.924-17.751-27.853-81.33 0.11-99.11 35.336-22.469 92.746 8.227 92.746 49.589 0 41.43-57.414 72.05-92.856 49.52z" fill="#f9f9f9" stroke="#000" fillOpacity="1" strokeDasharray="none" strokeDashoffset="0" strokeLinecap="round" strokeLinejoin="miter" strokeMiterlimit="3.8" strokeOpacity="1" strokeWidth="0"/>
<path d="m1284.3 467.98c-34.276-12.725-46.693-67.716-21.075-93.335 17.576-17.576 67.964-17.576 85.54 0 16.362 16.362 17.817 55.675 2.79 75.348-12.149 15.903-47.443 25.342-67.255 17.987z" fill="#f9f9f9" stroke="#000" fillOpacity="1" strokeDasharray="none" strokeDashoffset="0" strokeLinecap="round" strokeLinejoin="miter" strokeMiterlimit="3.8" strokeOpacity="1" strokeWidth="0"/>
<path d="m720.27 467.98c-34.276-12.725-46.693-67.716-21.075-93.335 17.576-17.576 67.964-17.576 85.54 0 16.362 16.362 17.817 55.675 2.79 75.348-12.148 15.903-47.442 25.342-67.255 17.987z" fill="#f9f9f9" stroke="#000" fillOpacity="1" strokeDasharray="none" strokeDashoffset="0" strokeLinecap="round" strokeLinejoin="miter" strokeMiterlimit="3.8" strokeOpacity="1" strokeWidth="0"/>
<path d="m234.3 846.97c-22.19-22.19-22.19-55.913 0-78.102 17.441-17.442 56.1-22.802 75.5-10.47 27.924 17.75 27.853 81.329-0.11 99.11-19.3 12.27-57.989 6.863-75.39-10.539z" fill="#f9f9f9" stroke="#000" fillOpacity="1" strokeDasharray="none" strokeDashoffset="0" strokeLinecap="round" strokeLinejoin="miter" strokeMiterlimit="3.8" strokeOpacity="1" strokeWidth="0"/>
</svg>
