    <svg xmlns="http://www.w3.org/2000/svg" viewBox="0 0 2048 2048">
      <path
        d="M1024 547H643l5 74h752l5-74h-381zm0 661H692l5 74h654l5-74h-332zm0-1003H383l29 264 159 118 50 659-149 107-17 341h289v-147h137v147h286v-147h137v147h289l-17-341-149-107 50-659 159-118 29-264h-641zm0 74h557l-15 149-161 119-54 735 152 109 13 230h-138v-148h-285v148H955v-148H670v148H532l13-230 152-109-54-735-161-119-15-149h557z"
        transform="matrix(1 0 0 -1 0 2048)"
      ></path>
      <path
        fill="#f9f9f9"
        d="M655.83 1378.5c5.023-49.684 38.405-500.57 38.405-518.72 0-11.062 44.868-12.804 329.76-12.804 284.89 0 329.76 1.742 329.76 12.804 0 18.154 33.382 469.04 38.405 518.72l4.167 41.22h-744.66l4.167-41.22zM624.78 707.65l-73.733-52.543-5.647-71.118c-3.106-39.115-6.035-89.667-6.509-112.34l-.861-41.22H668.2v147.526h295.06V430.429h121.492v147.526h295.06V430.429h130.17l-.86 41.22c-.475 22.671-3.403 73.224-6.51 112.34l-5.647 71.118-147.47 105.09h-650.96l-73.733-52.543zM471.67 1751.6c2.324-8.353 6.751-41.06 9.838-72.684l5.612-57.497 158.67-114.97h756.42l158.67 114.97 5.611 57.497c3.087 31.623 7.514 64.331 9.838 72.684 3.993 14.349-26.452 15.186-552.33 15.186-525.88 0-556.33-.837-552.33-15.186z"
      ></path>
    </svg>